<mxfile host="app.diagrams.net" agent="Mozilla/5.0 (Windows NT 10.0; Win64; x64) AppleWebKit/537.36 (KHTML, like Gecko) Chrome/139.0.0.0 Safari/537.36" version="26.0.16">
  <diagram id="R2lEEEUBdFMjLlhIrx00" name="Page-1">
    <mxGraphModel grid="1" page="1" gridSize="10" guides="1" tooltips="1" connect="1" arrows="1" fold="1" pageScale="1" pageWidth="850" pageHeight="1100" math="0" shadow="0" extFonts="Permanent Marker^https://fonts.googleapis.com/css?family=Permanent+Marker">
      <root>
        <mxCell id="0" />
        <mxCell id="1" parent="0" />
        <mxCell id="1oKJklOS__MM5d_hc4Aj-4" value="" style="ellipse;whiteSpace=wrap;html=1;" vertex="1" parent="1">
          <mxGeometry x="480" y="365" width="120" height="80" as="geometry" />
        </mxCell>
        <mxCell id="1oKJklOS__MM5d_hc4Aj-5" value="Smart-TV" style="text;html=1;align=center;verticalAlign=middle;whiteSpace=wrap;rounded=0;" vertex="1" parent="1">
          <mxGeometry x="510" y="390" width="60" height="30" as="geometry" />
        </mxCell>
        <mxCell id="1oKJklOS__MM5d_hc4Aj-6" value="" style="whiteSpace=wrap;html=1;aspect=fixed;dashed=1;" vertex="1" parent="1">
          <mxGeometry x="-240" y="110" width="590" height="590" as="geometry" />
        </mxCell>
        <mxCell id="1oKJklOS__MM5d_hc4Aj-7" value="" style="whiteSpace=wrap;html=1;aspect=fixed;dashed=1;" vertex="1" parent="1">
          <mxGeometry x="700" y="110" width="590" height="590" as="geometry" />
        </mxCell>
        <mxCell id="1oKJklOS__MM5d_hc4Aj-10" style="edgeStyle=orthogonalEdgeStyle;rounded=0;orthogonalLoop=1;jettySize=auto;html=1;entryX=0.5;entryY=0;entryDx=0;entryDy=0;" edge="1" parent="1" target="1oKJklOS__MM5d_hc4Aj-4">
          <mxGeometry relative="1" as="geometry">
            <mxPoint x="-50" y="240" as="sourcePoint" />
          </mxGeometry>
        </mxCell>
        <mxCell id="1oKJklOS__MM5d_hc4Aj-11" value="Controll/App via IR/Bluetooth" style="edgeLabel;html=1;align=center;verticalAlign=middle;resizable=0;points=[];" connectable="0" vertex="1" parent="1oKJklOS__MM5d_hc4Aj-10">
          <mxGeometry x="0.0103" y="3" relative="1" as="geometry">
            <mxPoint as="offset" />
          </mxGeometry>
        </mxCell>
        <mxCell id="1oKJklOS__MM5d_hc4Aj-21" value="" style="whiteSpace=wrap;html=1;aspect=fixed;" vertex="1" parent="1">
          <mxGeometry x="-130" y="200" width="80" height="80" as="geometry" />
        </mxCell>
        <mxCell id="1oKJklOS__MM5d_hc4Aj-9" value="User" style="text;html=1;align=center;verticalAlign=middle;whiteSpace=wrap;rounded=0;" vertex="1" parent="1">
          <mxGeometry x="-120" y="225" width="60" height="30" as="geometry" />
        </mxCell>
        <mxCell id="1oKJklOS__MM5d_hc4Aj-16" value="Local Storage" style="text;html=1;align=center;verticalAlign=middle;whiteSpace=wrap;rounded=0;" vertex="1" parent="1">
          <mxGeometry x="-120" y="550" width="60" height="30" as="geometry" />
        </mxCell>
        <mxCell id="1oKJklOS__MM5d_hc4Aj-18" style="edgeStyle=orthogonalEdgeStyle;rounded=0;orthogonalLoop=1;jettySize=auto;html=1;entryX=0.987;entryY=0.558;entryDx=0;entryDy=0;entryPerimeter=0;endArrow=classic;endFill=1;jumpStyle=arc;startArrow=block;startFill=1;" edge="1" parent="1" source="1oKJklOS__MM5d_hc4Aj-4">
          <mxGeometry relative="1" as="geometry">
            <mxPoint x="-51.039999999999964" y="574.6400000000001" as="targetPoint" />
            <Array as="points">
              <mxPoint x="540" y="575" />
              <mxPoint x="215" y="575" />
            </Array>
          </mxGeometry>
        </mxCell>
        <mxCell id="1oKJklOS__MM5d_hc4Aj-19" value="Read/Write" style="edgeLabel;html=1;align=center;verticalAlign=middle;resizable=0;points=[];" connectable="0" vertex="1" parent="1oKJklOS__MM5d_hc4Aj-18">
          <mxGeometry x="0.0828" y="2" relative="1" as="geometry">
            <mxPoint as="offset" />
          </mxGeometry>
        </mxCell>
        <mxCell id="1oKJklOS__MM5d_hc4Aj-20" value="" style="shape=partialRectangle;whiteSpace=wrap;html=1;left=0;right=0;fillColor=none;" vertex="1" parent="1">
          <mxGeometry x="-170" y="540" width="120" height="60" as="geometry" />
        </mxCell>
        <mxCell id="1oKJklOS__MM5d_hc4Aj-22" value="Home Network / Wi-fi (Trust Boundary)" style="text;html=1;align=center;verticalAlign=middle;whiteSpace=wrap;rounded=0;" vertex="1" parent="1">
          <mxGeometry x="-90" y="80" width="240" height="30" as="geometry" />
        </mxCell>
        <mxCell id="1oKJklOS__MM5d_hc4Aj-23" value="" style="whiteSpace=wrap;html=1;aspect=fixed;" vertex="1" parent="1">
          <mxGeometry x="940" y="150" width="80" height="80" as="geometry" />
        </mxCell>
        <mxCell id="1oKJklOS__MM5d_hc4Aj-24" value="" style="whiteSpace=wrap;html=1;aspect=fixed;" vertex="1" parent="1">
          <mxGeometry x="940" y="280" width="80" height="80" as="geometry" />
        </mxCell>
        <mxCell id="1oKJklOS__MM5d_hc4Aj-35" style="edgeStyle=orthogonalEdgeStyle;rounded=0;orthogonalLoop=1;jettySize=auto;html=1;entryX=1;entryY=0.5;entryDx=0;entryDy=0;curved=1;startArrow=block;startFill=1;" edge="1" parent="1" source="1oKJklOS__MM5d_hc4Aj-25" target="1oKJklOS__MM5d_hc4Aj-4">
          <mxGeometry relative="1" as="geometry" />
        </mxCell>
        <mxCell id="1oKJklOS__MM5d_hc4Aj-36" value="Version/Update" style="edgeLabel;html=1;align=center;verticalAlign=middle;resizable=0;points=[];" connectable="0" vertex="1" parent="1oKJklOS__MM5d_hc4Aj-35">
          <mxGeometry x="-0.2071" y="-9" relative="1" as="geometry">
            <mxPoint x="-1" as="offset" />
          </mxGeometry>
        </mxCell>
        <mxCell id="1oKJklOS__MM5d_hc4Aj-25" value="" style="whiteSpace=wrap;html=1;aspect=fixed;" vertex="1" parent="1">
          <mxGeometry x="940" y="410" width="80" height="80" as="geometry" />
        </mxCell>
        <mxCell id="1oKJklOS__MM5d_hc4Aj-38" style="edgeStyle=orthogonalEdgeStyle;rounded=0;orthogonalLoop=1;jettySize=auto;html=1;entryX=1;entryY=1;entryDx=0;entryDy=0;curved=1;startArrow=block;startFill=1;" edge="1" parent="1" source="1oKJklOS__MM5d_hc4Aj-26" target="1oKJklOS__MM5d_hc4Aj-4">
          <mxGeometry relative="1" as="geometry" />
        </mxCell>
        <mxCell id="1oKJklOS__MM5d_hc4Aj-39" value="Telemetry" style="edgeLabel;html=1;align=center;verticalAlign=middle;resizable=0;points=[];" connectable="0" vertex="1" parent="1oKJklOS__MM5d_hc4Aj-38">
          <mxGeometry x="-0.1409" y="-20" relative="1" as="geometry">
            <mxPoint x="-1" as="offset" />
          </mxGeometry>
        </mxCell>
        <mxCell id="1oKJklOS__MM5d_hc4Aj-26" value="" style="whiteSpace=wrap;html=1;aspect=fixed;" vertex="1" parent="1">
          <mxGeometry x="940" y="540" width="80" height="80" as="geometry" />
        </mxCell>
        <mxCell id="1oKJklOS__MM5d_hc4Aj-28" style="edgeStyle=orthogonalEdgeStyle;rounded=0;orthogonalLoop=1;jettySize=auto;html=1;entryX=1;entryY=0;entryDx=0;entryDy=0;curved=1;startArrow=block;startFill=1;" edge="1" parent="1" target="1oKJklOS__MM5d_hc4Aj-4">
          <mxGeometry relative="1" as="geometry">
            <mxPoint x="940" y="190" as="sourcePoint" />
          </mxGeometry>
        </mxCell>
        <mxCell id="1oKJklOS__MM5d_hc4Aj-29" value="Auth/Tokens" style="edgeLabel;html=1;align=center;verticalAlign=middle;resizable=0;points=[];" connectable="0" vertex="1" parent="1oKJklOS__MM5d_hc4Aj-28">
          <mxGeometry x="-0.1869" y="20" relative="1" as="geometry">
            <mxPoint as="offset" />
          </mxGeometry>
        </mxCell>
        <mxCell id="1oKJklOS__MM5d_hc4Aj-27" value="OAuth/IDP" style="text;html=1;align=center;verticalAlign=middle;whiteSpace=wrap;rounded=0;" vertex="1" parent="1">
          <mxGeometry x="950" y="175" width="60" height="30" as="geometry" />
        </mxCell>
        <mxCell id="1oKJklOS__MM5d_hc4Aj-30" value="Straming/CDN" style="text;html=1;align=center;verticalAlign=middle;whiteSpace=wrap;rounded=0;" vertex="1" parent="1">
          <mxGeometry x="950" y="310" width="60" height="30" as="geometry" />
        </mxCell>
        <mxCell id="1oKJklOS__MM5d_hc4Aj-31" style="edgeStyle=orthogonalEdgeStyle;rounded=0;orthogonalLoop=1;jettySize=auto;html=1;entryX=1.017;entryY=0.333;entryDx=0;entryDy=0;entryPerimeter=0;curved=1;startArrow=block;startFill=1;" edge="1" parent="1" source="1oKJklOS__MM5d_hc4Aj-24" target="1oKJklOS__MM5d_hc4Aj-4">
          <mxGeometry relative="1" as="geometry" />
        </mxCell>
        <mxCell id="1oKJklOS__MM5d_hc4Aj-32" value="Manifest/DRM" style="edgeLabel;html=1;align=center;verticalAlign=middle;resizable=0;points=[];" connectable="0" vertex="1" parent="1oKJklOS__MM5d_hc4Aj-31">
          <mxGeometry x="-0.0917" y="10" relative="1" as="geometry">
            <mxPoint x="1" as="offset" />
          </mxGeometry>
        </mxCell>
        <mxCell id="1oKJklOS__MM5d_hc4Aj-33" value="Update Server" style="text;html=1;align=center;verticalAlign=middle;whiteSpace=wrap;rounded=0;" vertex="1" parent="1">
          <mxGeometry x="950" y="435" width="60" height="30" as="geometry" />
        </mxCell>
        <mxCell id="1oKJklOS__MM5d_hc4Aj-37" value="Telemetry/&lt;div&gt;Analytics&lt;/div&gt;" style="text;html=1;align=center;verticalAlign=middle;whiteSpace=wrap;rounded=0;" vertex="1" parent="1">
          <mxGeometry x="950" y="565" width="60" height="30" as="geometry" />
        </mxCell>
        <mxCell id="1oKJklOS__MM5d_hc4Aj-40" value="Internet (Trust Boundary)" style="text;html=1;align=center;verticalAlign=middle;whiteSpace=wrap;rounded=0;" vertex="1" parent="1">
          <mxGeometry x="915" y="80" width="160" height="30" as="geometry" />
        </mxCell>
        <mxCell id="1oKJklOS__MM5d_hc4Aj-45" value="" style="childLayout=tableLayout;recursiveResize=0;shadow=0;fillColor=none;" vertex="1" parent="1">
          <mxGeometry x="290" y="930" width="500" height="422" as="geometry" />
        </mxCell>
        <mxCell id="1oKJklOS__MM5d_hc4Aj-46" value="" style="shape=tableRow;horizontal=0;startSize=0;swimlaneHead=0;swimlaneBody=0;top=0;left=0;bottom=0;right=0;dropTarget=0;collapsible=0;recursiveResize=0;expand=0;fontStyle=0;fillColor=none;strokeColor=inherit;" vertex="1" parent="1oKJklOS__MM5d_hc4Aj-45">
          <mxGeometry width="500" height="47" as="geometry" />
        </mxCell>
        <mxCell id="1oKJklOS__MM5d_hc4Aj-61" value="ID" style="connectable=0;recursiveResize=0;strokeColor=inherit;fillColor=none;align=center;whiteSpace=wrap;html=1;" vertex="1" parent="1oKJklOS__MM5d_hc4Aj-46">
          <mxGeometry width="60" height="47" as="geometry">
            <mxRectangle width="60" height="47" as="alternateBounds" />
          </mxGeometry>
        </mxCell>
        <mxCell id="1oKJklOS__MM5d_hc4Aj-58" value="Plats I DFD" style="connectable=0;recursiveResize=0;strokeColor=inherit;fillColor=none;align=center;whiteSpace=wrap;html=1;" vertex="1" parent="1oKJklOS__MM5d_hc4Aj-46">
          <mxGeometry x="60" width="100" height="47" as="geometry">
            <mxRectangle width="100" height="47" as="alternateBounds" />
          </mxGeometry>
        </mxCell>
        <mxCell id="1oKJklOS__MM5d_hc4Aj-47" value="STRIDE" style="connectable=0;recursiveResize=0;strokeColor=inherit;fillColor=none;align=center;whiteSpace=wrap;html=1;" vertex="1" parent="1oKJklOS__MM5d_hc4Aj-46">
          <mxGeometry x="160" width="60" height="47" as="geometry">
            <mxRectangle width="60" height="47" as="alternateBounds" />
          </mxGeometry>
        </mxCell>
        <mxCell id="1oKJklOS__MM5d_hc4Aj-48" value="&amp;nbsp;risk" style="connectable=0;recursiveResize=0;strokeColor=inherit;fillColor=none;align=center;whiteSpace=wrap;html=1;" vertex="1" parent="1oKJklOS__MM5d_hc4Aj-46">
          <mxGeometry x="220" width="120" height="47" as="geometry">
            <mxRectangle width="120" height="47" as="alternateBounds" />
          </mxGeometry>
        </mxCell>
        <mxCell id="1oKJklOS__MM5d_hc4Aj-49" value="Mitigation" style="connectable=0;recursiveResize=0;strokeColor=inherit;fillColor=none;align=center;whiteSpace=wrap;html=1;" vertex="1" parent="1oKJklOS__MM5d_hc4Aj-46">
          <mxGeometry x="340" width="160" height="47" as="geometry">
            <mxRectangle width="160" height="47" as="alternateBounds" />
          </mxGeometry>
        </mxCell>
        <mxCell id="1oKJklOS__MM5d_hc4Aj-94" style="shape=tableRow;horizontal=0;startSize=0;swimlaneHead=0;swimlaneBody=0;top=0;left=0;bottom=0;right=0;dropTarget=0;collapsible=0;recursiveResize=0;expand=0;fontStyle=0;fillColor=none;strokeColor=inherit;" vertex="1" parent="1oKJklOS__MM5d_hc4Aj-45">
          <mxGeometry y="47" width="500" height="47" as="geometry" />
        </mxCell>
        <mxCell id="1oKJklOS__MM5d_hc4Aj-95" value="T1" style="connectable=0;recursiveResize=0;strokeColor=inherit;fillColor=none;align=center;whiteSpace=wrap;html=1;" vertex="1" parent="1oKJklOS__MM5d_hc4Aj-94">
          <mxGeometry width="60" height="47" as="geometry">
            <mxRectangle width="60" height="47" as="alternateBounds" />
          </mxGeometry>
        </mxCell>
        <mxCell id="1oKJklOS__MM5d_hc4Aj-96" value="Home↔Internet boundary" style="connectable=0;recursiveResize=0;strokeColor=inherit;fillColor=none;align=center;whiteSpace=wrap;html=1;" vertex="1" parent="1oKJklOS__MM5d_hc4Aj-94">
          <mxGeometry x="60" width="100" height="47" as="geometry">
            <mxRectangle width="100" height="47" as="alternateBounds" />
          </mxGeometry>
        </mxCell>
        <mxCell id="1oKJklOS__MM5d_hc4Aj-97" value="S,T,I" style="connectable=0;recursiveResize=0;strokeColor=inherit;fillColor=none;align=center;whiteSpace=wrap;html=1;" vertex="1" parent="1oKJklOS__MM5d_hc4Aj-94">
          <mxGeometry x="160" width="60" height="47" as="geometry">
            <mxRectangle width="60" height="47" as="alternateBounds" />
          </mxGeometry>
        </mxCell>
        <mxCell id="1oKJklOS__MM5d_hc4Aj-98" value="MITM/DNS hijack" style="connectable=0;recursiveResize=0;strokeColor=inherit;fillColor=none;align=center;whiteSpace=wrap;html=1;" vertex="1" parent="1oKJklOS__MM5d_hc4Aj-94">
          <mxGeometry x="220" width="120" height="47" as="geometry">
            <mxRectangle width="120" height="47" as="alternateBounds" />
          </mxGeometry>
        </mxCell>
        <mxCell id="1oKJklOS__MM5d_hc4Aj-99" value="WPA3, HSTS, DoH, pinning" style="connectable=0;recursiveResize=0;strokeColor=inherit;fillColor=none;align=center;whiteSpace=wrap;html=1;" vertex="1" parent="1oKJklOS__MM5d_hc4Aj-94">
          <mxGeometry x="340" width="160" height="47" as="geometry">
            <mxRectangle width="160" height="47" as="alternateBounds" />
          </mxGeometry>
        </mxCell>
        <mxCell id="1oKJklOS__MM5d_hc4Aj-88" style="shape=tableRow;horizontal=0;startSize=0;swimlaneHead=0;swimlaneBody=0;top=0;left=0;bottom=0;right=0;dropTarget=0;collapsible=0;recursiveResize=0;expand=0;fontStyle=0;fillColor=none;strokeColor=inherit;" vertex="1" parent="1oKJklOS__MM5d_hc4Aj-45">
          <mxGeometry y="94" width="500" height="47" as="geometry" />
        </mxCell>
        <mxCell id="1oKJklOS__MM5d_hc4Aj-89" value="T2" style="connectable=0;recursiveResize=0;strokeColor=inherit;fillColor=none;align=center;whiteSpace=wrap;html=1;" vertex="1" parent="1oKJklOS__MM5d_hc4Aj-88">
          <mxGeometry width="60" height="47" as="geometry">
            <mxRectangle width="60" height="47" as="alternateBounds" />
          </mxGeometry>
        </mxCell>
        <mxCell id="1oKJklOS__MM5d_hc4Aj-90" value="&lt;table&gt;&lt;tbody&gt;&lt;tr&gt;&lt;td data-col-size=&quot;sm&quot; data-end=&quot;2676&quot; data-start=&quot;2671&quot;&gt;&lt;/td&gt;&lt;/tr&gt;&lt;/tbody&gt;&lt;/table&gt;&lt;table&gt;&lt;tbody&gt;&lt;tr&gt;&lt;td data-col-size=&quot;sm&quot; data-end=&quot;2692&quot; data-start=&quot;2676&quot;&gt;Local Storage&lt;/td&gt;&lt;/tr&gt;&lt;/tbody&gt;&lt;/table&gt;" style="connectable=0;recursiveResize=0;strokeColor=inherit;fillColor=none;align=center;whiteSpace=wrap;html=1;" vertex="1" parent="1oKJklOS__MM5d_hc4Aj-88">
          <mxGeometry x="60" width="100" height="47" as="geometry">
            <mxRectangle width="100" height="47" as="alternateBounds" />
          </mxGeometry>
        </mxCell>
        <mxCell id="1oKJklOS__MM5d_hc4Aj-91" value="I,E" style="connectable=0;recursiveResize=0;strokeColor=inherit;fillColor=none;align=center;whiteSpace=wrap;html=1;" vertex="1" parent="1oKJklOS__MM5d_hc4Aj-88">
          <mxGeometry x="160" width="60" height="47" as="geometry">
            <mxRectangle width="60" height="47" as="alternateBounds" />
          </mxGeometry>
        </mxCell>
        <mxCell id="1oKJklOS__MM5d_hc4Aj-92" value="Token/key leakage" style="connectable=0;recursiveResize=0;strokeColor=inherit;fillColor=none;align=center;whiteSpace=wrap;html=1;" vertex="1" parent="1oKJklOS__MM5d_hc4Aj-88">
          <mxGeometry x="220" width="120" height="47" as="geometry">
            <mxRectangle width="120" height="47" as="alternateBounds" />
          </mxGeometry>
        </mxCell>
        <mxCell id="1oKJklOS__MM5d_hc4Aj-93" value="&lt;table&gt;&lt;tbody&gt;&lt;tr&gt;&lt;td data-col-size=&quot;sm&quot; data-end=&quot;2718&quot; data-start=&quot;2698&quot;&gt;&lt;/td&gt;&lt;/tr&gt;&lt;/tbody&gt;&lt;/table&gt;&lt;table&gt;&lt;tbody&gt;&lt;tr&gt;&lt;td data-col-size=&quot;sm&quot; data-end=&quot;2762&quot; data-start=&quot;2718&quot;&gt;Keystore, encryption, short-lived tokens&lt;/td&gt;&lt;/tr&gt;&lt;/tbody&gt;&lt;/table&gt;" style="connectable=0;recursiveResize=0;strokeColor=inherit;fillColor=none;align=center;whiteSpace=wrap;html=1;" vertex="1" parent="1oKJklOS__MM5d_hc4Aj-88">
          <mxGeometry x="340" width="160" height="47" as="geometry">
            <mxRectangle width="160" height="47" as="alternateBounds" />
          </mxGeometry>
        </mxCell>
        <mxCell id="1oKJklOS__MM5d_hc4Aj-82" style="shape=tableRow;horizontal=0;startSize=0;swimlaneHead=0;swimlaneBody=0;top=0;left=0;bottom=0;right=0;dropTarget=0;collapsible=0;recursiveResize=0;expand=0;fontStyle=0;fillColor=none;strokeColor=inherit;" vertex="1" parent="1oKJklOS__MM5d_hc4Aj-45">
          <mxGeometry y="141" width="500" height="47" as="geometry" />
        </mxCell>
        <mxCell id="1oKJklOS__MM5d_hc4Aj-83" value="T3" style="connectable=0;recursiveResize=0;strokeColor=inherit;fillColor=none;align=center;whiteSpace=wrap;html=1;" vertex="1" parent="1oKJklOS__MM5d_hc4Aj-82">
          <mxGeometry width="60" height="47" as="geometry">
            <mxRectangle width="60" height="47" as="alternateBounds" />
          </mxGeometry>
        </mxCell>
        <mxCell id="1oKJklOS__MM5d_hc4Aj-84" value="OAuth/IDP flow" style="connectable=0;recursiveResize=0;strokeColor=inherit;fillColor=none;align=center;whiteSpace=wrap;html=1;" vertex="1" parent="1oKJklOS__MM5d_hc4Aj-82">
          <mxGeometry x="60" width="100" height="47" as="geometry">
            <mxRectangle width="100" height="47" as="alternateBounds" />
          </mxGeometry>
        </mxCell>
        <mxCell id="1oKJklOS__MM5d_hc4Aj-85" value="S,E" style="connectable=0;recursiveResize=0;strokeColor=inherit;fillColor=none;align=center;whiteSpace=wrap;html=1;" vertex="1" parent="1oKJklOS__MM5d_hc4Aj-82">
          <mxGeometry x="160" width="60" height="47" as="geometry">
            <mxRectangle width="60" height="47" as="alternateBounds" />
          </mxGeometry>
        </mxCell>
        <mxCell id="1oKJklOS__MM5d_hc4Aj-86" value="Weak auth config" style="connectable=0;recursiveResize=0;strokeColor=inherit;fillColor=none;align=center;whiteSpace=wrap;html=1;" vertex="1" parent="1oKJklOS__MM5d_hc4Aj-82">
          <mxGeometry x="220" width="120" height="47" as="geometry">
            <mxRectangle width="120" height="47" as="alternateBounds" />
          </mxGeometry>
        </mxCell>
        <mxCell id="1oKJklOS__MM5d_hc4Aj-87" value="PKCE, strict redirects, scope limit" style="connectable=0;recursiveResize=0;strokeColor=inherit;fillColor=none;align=center;whiteSpace=wrap;html=1;" vertex="1" parent="1oKJklOS__MM5d_hc4Aj-82">
          <mxGeometry x="340" width="160" height="47" as="geometry">
            <mxRectangle width="160" height="47" as="alternateBounds" />
          </mxGeometry>
        </mxCell>
        <mxCell id="1oKJklOS__MM5d_hc4Aj-76" style="shape=tableRow;horizontal=0;startSize=0;swimlaneHead=0;swimlaneBody=0;top=0;left=0;bottom=0;right=0;dropTarget=0;collapsible=0;recursiveResize=0;expand=0;fontStyle=0;fillColor=none;strokeColor=inherit;" vertex="1" parent="1oKJklOS__MM5d_hc4Aj-45">
          <mxGeometry y="188" width="500" height="47" as="geometry" />
        </mxCell>
        <mxCell id="1oKJklOS__MM5d_hc4Aj-77" value="T4" style="connectable=0;recursiveResize=0;strokeColor=inherit;fillColor=none;align=center;whiteSpace=wrap;html=1;" vertex="1" parent="1oKJklOS__MM5d_hc4Aj-76">
          <mxGeometry width="60" height="47" as="geometry">
            <mxRectangle width="60" height="47" as="alternateBounds" />
          </mxGeometry>
        </mxCell>
        <mxCell id="1oKJklOS__MM5d_hc4Aj-78" value="Streaming/CDN flow" style="connectable=0;recursiveResize=0;strokeColor=inherit;fillColor=none;align=center;whiteSpace=wrap;html=1;" vertex="1" parent="1oKJklOS__MM5d_hc4Aj-76">
          <mxGeometry x="60" width="100" height="47" as="geometry">
            <mxRectangle width="100" height="47" as="alternateBounds" />
          </mxGeometry>
        </mxCell>
        <mxCell id="1oKJklOS__MM5d_hc4Aj-79" value="T,D" style="connectable=0;recursiveResize=0;strokeColor=inherit;fillColor=none;align=center;whiteSpace=wrap;html=1;" vertex="1" parent="1oKJklOS__MM5d_hc4Aj-76">
          <mxGeometry x="160" width="60" height="47" as="geometry">
            <mxRectangle width="60" height="47" as="alternateBounds" />
          </mxGeometry>
        </mxCell>
        <mxCell id="1oKJklOS__MM5d_hc4Aj-80" value="Poisoned manifest/DRM" style="connectable=0;recursiveResize=0;strokeColor=inherit;fillColor=none;align=center;whiteSpace=wrap;html=1;" vertex="1" parent="1oKJklOS__MM5d_hc4Aj-76">
          <mxGeometry x="220" width="120" height="47" as="geometry">
            <mxRectangle width="120" height="47" as="alternateBounds" />
          </mxGeometry>
        </mxCell>
        <mxCell id="1oKJklOS__MM5d_hc4Aj-81" value="&lt;table&gt;&lt;tbody&gt;&lt;tr&gt;&lt;td data-col-size=&quot;sm&quot; data-end=&quot;2906&quot; data-start=&quot;2882&quot;&gt;&lt;/td&gt;&lt;/tr&gt;&lt;/tbody&gt;&lt;/table&gt;&lt;table&gt;&lt;tbody&gt;&lt;tr&gt;&lt;td data-col-size=&quot;sm&quot; data-end=&quot;2935&quot; data-start=&quot;2906&quot;&gt;Signature, validation, RL&lt;/td&gt;&lt;/tr&gt;&lt;/tbody&gt;&lt;/table&gt;" style="connectable=0;recursiveResize=0;strokeColor=inherit;fillColor=none;align=center;whiteSpace=wrap;html=1;" vertex="1" parent="1oKJklOS__MM5d_hc4Aj-76">
          <mxGeometry x="340" width="160" height="47" as="geometry">
            <mxRectangle width="160" height="47" as="alternateBounds" />
          </mxGeometry>
        </mxCell>
        <mxCell id="1oKJklOS__MM5d_hc4Aj-70" style="shape=tableRow;horizontal=0;startSize=0;swimlaneHead=0;swimlaneBody=0;top=0;left=0;bottom=0;right=0;dropTarget=0;collapsible=0;recursiveResize=0;expand=0;fontStyle=0;fillColor=none;strokeColor=inherit;" vertex="1" parent="1oKJklOS__MM5d_hc4Aj-45">
          <mxGeometry y="235" width="500" height="47" as="geometry" />
        </mxCell>
        <mxCell id="1oKJklOS__MM5d_hc4Aj-71" value="T5" style="connectable=0;recursiveResize=0;strokeColor=inherit;fillColor=none;align=center;whiteSpace=wrap;html=1;" vertex="1" parent="1oKJklOS__MM5d_hc4Aj-70">
          <mxGeometry width="60" height="47" as="geometry">
            <mxRectangle width="60" height="47" as="alternateBounds" />
          </mxGeometry>
        </mxCell>
        <mxCell id="1oKJklOS__MM5d_hc4Aj-72" value="Telemetry flow" style="connectable=0;recursiveResize=0;strokeColor=inherit;fillColor=none;align=center;whiteSpace=wrap;html=1;" vertex="1" parent="1oKJklOS__MM5d_hc4Aj-70">
          <mxGeometry x="60" width="100" height="47" as="geometry">
            <mxRectangle width="100" height="47" as="alternateBounds" />
          </mxGeometry>
        </mxCell>
        <mxCell id="1oKJklOS__MM5d_hc4Aj-73" value="&lt;table&gt;&lt;tbody&gt;&lt;tr&gt;&lt;td data-col-size=&quot;sm&quot; data-end=&quot;2958&quot; data-start=&quot;2941&quot;&gt;&lt;/td&gt;&lt;/tr&gt;&lt;/tbody&gt;&lt;/table&gt;&lt;table&gt;&lt;tbody&gt;&lt;tr&gt;&lt;td data-col-size=&quot;sm&quot; data-end=&quot;2964&quot; data-start=&quot;2958&quot;&gt;I,R&lt;/td&gt;&lt;/tr&gt;&lt;/tbody&gt;&lt;/table&gt;" style="connectable=0;recursiveResize=0;strokeColor=inherit;fillColor=none;align=center;whiteSpace=wrap;html=1;" vertex="1" parent="1oKJklOS__MM5d_hc4Aj-70">
          <mxGeometry x="160" width="60" height="47" as="geometry">
            <mxRectangle width="60" height="47" as="alternateBounds" />
          </mxGeometry>
        </mxCell>
        <mxCell id="1oKJklOS__MM5d_hc4Aj-74" value="Privacy/data leak" style="connectable=0;recursiveResize=0;strokeColor=inherit;fillColor=none;align=center;whiteSpace=wrap;html=1;" vertex="1" parent="1oKJklOS__MM5d_hc4Aj-70">
          <mxGeometry x="220" width="120" height="47" as="geometry">
            <mxRectangle width="120" height="47" as="alternateBounds" />
          </mxGeometry>
        </mxCell>
        <mxCell id="1oKJklOS__MM5d_hc4Aj-75" value="Anonymization, opt-in" style="connectable=0;recursiveResize=0;strokeColor=inherit;fillColor=none;align=center;whiteSpace=wrap;html=1;" vertex="1" parent="1oKJklOS__MM5d_hc4Aj-70">
          <mxGeometry x="340" width="160" height="47" as="geometry">
            <mxRectangle width="160" height="47" as="alternateBounds" />
          </mxGeometry>
        </mxCell>
        <mxCell id="1oKJklOS__MM5d_hc4Aj-64" style="shape=tableRow;horizontal=0;startSize=0;swimlaneHead=0;swimlaneBody=0;top=0;left=0;bottom=0;right=0;dropTarget=0;collapsible=0;recursiveResize=0;expand=0;fontStyle=0;fillColor=none;strokeColor=inherit;" vertex="1" parent="1oKJklOS__MM5d_hc4Aj-45">
          <mxGeometry y="282" width="500" height="47" as="geometry" />
        </mxCell>
        <mxCell id="1oKJklOS__MM5d_hc4Aj-65" value="T6" style="connectable=0;recursiveResize=0;strokeColor=inherit;fillColor=none;align=center;whiteSpace=wrap;html=1;" vertex="1" parent="1oKJklOS__MM5d_hc4Aj-64">
          <mxGeometry width="60" height="47" as="geometry">
            <mxRectangle width="60" height="47" as="alternateBounds" />
          </mxGeometry>
        </mxCell>
        <mxCell id="1oKJklOS__MM5d_hc4Aj-66" value="Update flow" style="connectable=0;recursiveResize=0;strokeColor=inherit;fillColor=none;align=center;whiteSpace=wrap;html=1;" vertex="1" parent="1oKJklOS__MM5d_hc4Aj-64">
          <mxGeometry x="60" width="100" height="47" as="geometry">
            <mxRectangle width="100" height="47" as="alternateBounds" />
          </mxGeometry>
        </mxCell>
        <mxCell id="1oKJklOS__MM5d_hc4Aj-67" value="&lt;table&gt;&lt;tbody&gt;&lt;tr&gt;&lt;td data-col-size=&quot;sm&quot; data-end=&quot;3029&quot; data-start=&quot;3015&quot;&gt;&lt;/td&gt;&lt;/tr&gt;&lt;/tbody&gt;&lt;/table&gt;&lt;table&gt;&lt;tbody&gt;&lt;tr&gt;&lt;td data-col-size=&quot;sm&quot; data-end=&quot;3035&quot; data-start=&quot;3029&quot;&gt;T,E&lt;/td&gt;&lt;/tr&gt;&lt;/tbody&gt;&lt;/table&gt;" style="connectable=0;recursiveResize=0;strokeColor=inherit;fillColor=none;align=center;whiteSpace=wrap;html=1;" vertex="1" parent="1oKJklOS__MM5d_hc4Aj-64">
          <mxGeometry x="160" width="60" height="47" as="geometry">
            <mxRectangle width="60" height="47" as="alternateBounds" />
          </mxGeometry>
        </mxCell>
        <mxCell id="1oKJklOS__MM5d_hc4Aj-68" value="Compromised firmware" style="connectable=0;recursiveResize=0;strokeColor=inherit;fillColor=none;align=center;whiteSpace=wrap;html=1;" vertex="1" parent="1oKJklOS__MM5d_hc4Aj-64">
          <mxGeometry x="220" width="120" height="47" as="geometry">
            <mxRectangle width="120" height="47" as="alternateBounds" />
          </mxGeometry>
        </mxCell>
        <mxCell id="1oKJklOS__MM5d_hc4Aj-69" value="Signed updates, rollback" style="connectable=0;recursiveResize=0;strokeColor=inherit;fillColor=none;align=center;whiteSpace=wrap;html=1;" vertex="1" parent="1oKJklOS__MM5d_hc4Aj-64">
          <mxGeometry x="340" width="160" height="47" as="geometry">
            <mxRectangle width="160" height="47" as="alternateBounds" />
          </mxGeometry>
        </mxCell>
        <mxCell id="1oKJklOS__MM5d_hc4Aj-50" style="shape=tableRow;horizontal=0;startSize=0;swimlaneHead=0;swimlaneBody=0;top=0;left=0;bottom=0;right=0;dropTarget=0;collapsible=0;recursiveResize=0;expand=0;fontStyle=0;fillColor=none;strokeColor=inherit;" vertex="1" parent="1oKJklOS__MM5d_hc4Aj-45">
          <mxGeometry y="329" width="500" height="46" as="geometry" />
        </mxCell>
        <mxCell id="1oKJklOS__MM5d_hc4Aj-62" value="T7" style="connectable=0;recursiveResize=0;strokeColor=inherit;fillColor=none;align=center;whiteSpace=wrap;html=1;" vertex="1" parent="1oKJklOS__MM5d_hc4Aj-50">
          <mxGeometry width="60" height="46" as="geometry">
            <mxRectangle width="60" height="46" as="alternateBounds" />
          </mxGeometry>
        </mxCell>
        <mxCell id="1oKJklOS__MM5d_hc4Aj-59" value="User→TV (IR/BT)" style="connectable=0;recursiveResize=0;strokeColor=inherit;fillColor=none;align=center;whiteSpace=wrap;html=1;" vertex="1" parent="1oKJklOS__MM5d_hc4Aj-50">
          <mxGeometry x="60" width="100" height="46" as="geometry">
            <mxRectangle width="100" height="46" as="alternateBounds" />
          </mxGeometry>
        </mxCell>
        <mxCell id="1oKJklOS__MM5d_hc4Aj-51" value="S,R" style="connectable=0;recursiveResize=0;strokeColor=inherit;fillColor=none;align=center;whiteSpace=wrap;html=1;" vertex="1" parent="1oKJklOS__MM5d_hc4Aj-50">
          <mxGeometry x="160" width="60" height="46" as="geometry">
            <mxRectangle width="60" height="46" as="alternateBounds" />
          </mxGeometry>
        </mxCell>
        <mxCell id="1oKJklOS__MM5d_hc4Aj-52" value="Replay/bruteforce" style="connectable=0;recursiveResize=0;strokeColor=inherit;fillColor=none;align=center;whiteSpace=wrap;html=1;" vertex="1" parent="1oKJklOS__MM5d_hc4Aj-50">
          <mxGeometry x="220" width="120" height="46" as="geometry">
            <mxRectangle width="120" height="46" as="alternateBounds" />
          </mxGeometry>
        </mxCell>
        <mxCell id="1oKJklOS__MM5d_hc4Aj-53" value="Nonce, pairing security" style="connectable=0;recursiveResize=0;strokeColor=inherit;fillColor=none;align=center;whiteSpace=wrap;html=1;" vertex="1" parent="1oKJklOS__MM5d_hc4Aj-50">
          <mxGeometry x="340" width="160" height="46" as="geometry">
            <mxRectangle width="160" height="46" as="alternateBounds" />
          </mxGeometry>
        </mxCell>
        <mxCell id="1oKJklOS__MM5d_hc4Aj-54" style="shape=tableRow;horizontal=0;startSize=0;swimlaneHead=0;swimlaneBody=0;top=0;left=0;bottom=0;right=0;dropTarget=0;collapsible=0;recursiveResize=0;expand=0;fontStyle=0;fillColor=none;strokeColor=inherit;" vertex="1" parent="1oKJklOS__MM5d_hc4Aj-45">
          <mxGeometry y="375" width="500" height="47" as="geometry" />
        </mxCell>
        <mxCell id="1oKJklOS__MM5d_hc4Aj-63" value="T8" style="connectable=0;recursiveResize=0;strokeColor=inherit;fillColor=none;align=center;whiteSpace=wrap;html=1;" vertex="1" parent="1oKJklOS__MM5d_hc4Aj-54">
          <mxGeometry width="60" height="47" as="geometry">
            <mxRectangle width="60" height="47" as="alternateBounds" />
          </mxGeometry>
        </mxCell>
        <mxCell id="1oKJklOS__MM5d_hc4Aj-60" value="Streaming/CDN" style="connectable=0;recursiveResize=0;strokeColor=inherit;fillColor=none;align=center;whiteSpace=wrap;html=1;" vertex="1" parent="1oKJklOS__MM5d_hc4Aj-54">
          <mxGeometry x="60" width="100" height="47" as="geometry">
            <mxRectangle width="100" height="47" as="alternateBounds" />
          </mxGeometry>
        </mxCell>
        <mxCell id="1oKJklOS__MM5d_hc4Aj-55" value="D" style="connectable=0;recursiveResize=0;strokeColor=inherit;fillColor=none;align=center;whiteSpace=wrap;html=1;" vertex="1" parent="1oKJklOS__MM5d_hc4Aj-54">
          <mxGeometry x="160" width="60" height="47" as="geometry">
            <mxRectangle width="60" height="47" as="alternateBounds" />
          </mxGeometry>
        </mxCell>
        <mxCell id="1oKJklOS__MM5d_hc4Aj-56" value="Overload attack" style="connectable=0;recursiveResize=0;strokeColor=inherit;fillColor=none;align=center;whiteSpace=wrap;html=1;" vertex="1" parent="1oKJklOS__MM5d_hc4Aj-54">
          <mxGeometry x="220" width="120" height="47" as="geometry">
            <mxRectangle width="120" height="47" as="alternateBounds" />
          </mxGeometry>
        </mxCell>
        <mxCell id="1oKJklOS__MM5d_hc4Aj-57" value="CDN, backoff, cache" style="connectable=0;recursiveResize=0;strokeColor=inherit;fillColor=none;align=center;whiteSpace=wrap;html=1;" vertex="1" parent="1oKJklOS__MM5d_hc4Aj-54">
          <mxGeometry x="340" width="160" height="47" as="geometry">
            <mxRectangle width="160" height="47" as="alternateBounds" />
          </mxGeometry>
        </mxCell>
        <mxCell id="1oKJklOS__MM5d_hc4Aj-100" value="STRIDE = Spoofing, Tampering, Repudiation, information disclosure, Denial of service, elevation of privilege" style="text;html=1;align=center;verticalAlign=middle;whiteSpace=wrap;rounded=0;" vertex="1" parent="1">
          <mxGeometry x="220" y="1370" width="630" height="30" as="geometry" />
        </mxCell>
        <mxCell id="1oKJklOS__MM5d_hc4Aj-101" value="&lt;font style=&quot;font-size: 30px;&quot;&gt;DFD- Data Fully Diagram&lt;/font&gt;" style="text;html=1;align=center;verticalAlign=middle;whiteSpace=wrap;rounded=0;" vertex="1" parent="1">
          <mxGeometry x="380" y="10" width="410" height="30" as="geometry" />
        </mxCell>
        <mxCell id="1oKJklOS__MM5d_hc4Aj-102" value="&lt;font style=&quot;font-size: 30px;&quot;&gt;STRIDE- diagram&lt;/font&gt;" style="text;html=1;align=center;verticalAlign=middle;whiteSpace=wrap;rounded=0;" vertex="1" parent="1">
          <mxGeometry x="335" y="870" width="410" height="30" as="geometry" />
        </mxCell>
      </root>
    </mxGraphModel>
  </diagram>
</mxfile>
